# xmcd CD database file
#
# Track frame offsets:
#	150
#	21861
#	40727
#	61332
#	81791
#	100914
#	120170
#	141360
#	162278
#	182126
#	201847
#	217590
#	240438
#
# Disc length: 3512 seconds
#
# Revision: 0
# Processed by: cddbd v1.5.1PL2 Copyright (c) Steve Scherf et al.
# Submitted via: CDex 1.51
#
DISCID=a30db60d
DTITLE=Puerto Rican Power - Exitos y Mas
DYEAR=2006
DGENRE=Salsa
TTITLE0=Bonitas
TTITLE1=Tu Cariñito
TTITLE2=Mi Mujer Es Un Policía
TTITLE3=Con El Mismo Amor
TTITLE4=Me Da Te Amo
TTITLE5=Sí Pero No (AKA Una Chica, Sí Pero No)
TTITLE6=Solo Con Ella
TTITLE7=Pena De Amor
TTITLE8=Cuando Faltas Tú
TTITLE9=Me Tiene Loco
TTITLE10=Doctor (AKA Mi Mujer Me Esta Esperando)
TTITLE11=Jugete De Nadie
TTITLE12=A Donde Irás
EXTD=YEAR: 2006
EXTT0=
EXTT1=
EXTT2=
EXTT3=
EXTT4=
EXTT5=
EXTT6=
EXTT7=
EXTT8=
EXTT9=
EXTT10=
EXTT11=
EXTT12=
PLAYORDER=
